<svg width="178" height="24" viewBox="0 0 178 24" fill="none" xmlns="http://www.w3.org/2000/svg">
<path d="M3.01242 3.875V11.39H11.8474V13.76H3.01242V23H0.102422V1.505H13.3474V3.875H3.01242ZM25.287 13.745C25.287 13.125 25.197 12.56 25.017 12.05C24.847 11.53 24.592 11.085 24.252 10.715C23.922 10.335 23.517 10.045 23.037 9.845C22.557 9.635 22.012 9.53 21.402 9.53C20.122 9.53 19.107 9.905 18.357 10.655C17.617 11.395 17.157 12.425 16.977 13.745H25.287ZM27.447 20.87C27.117 21.27 26.722 21.62 26.262 21.92C25.802 22.21 25.307 22.45 24.777 22.64C24.257 22.83 23.717 22.97 23.157 23.06C22.597 23.16 22.042 23.21 21.492 23.21C20.442 23.21 19.472 23.035 18.582 22.685C17.702 22.325 16.937 21.805 16.287 21.125C15.647 20.435 15.147 19.585 14.787 18.575C14.427 17.565 14.247 16.405 14.247 15.095C14.247 14.035 14.407 13.045 14.727 12.125C15.057 11.205 15.527 10.41 16.137 9.74C16.747 9.06 17.492 8.53 18.372 8.15C19.252 7.76 20.242 7.565 21.342 7.565C22.252 7.565 23.092 7.72 23.862 8.03C24.642 8.33 25.312 8.77 25.872 9.35C26.442 9.92 26.887 10.63 27.207 11.48C27.527 12.32 27.687 13.28 27.687 14.36C27.687 14.78 27.642 15.06 27.552 15.2C27.462 15.34 27.292 15.41 27.042 15.41H16.887C16.917 16.37 17.047 17.205 17.277 17.915C17.517 18.625 17.847 19.22 18.267 19.7C18.687 20.17 19.187 20.525 19.767 20.765C20.347 20.995 20.997 21.11 21.717 21.11C22.387 21.11 22.962 21.035 23.442 20.885C23.932 20.725 24.352 20.555 24.702 20.375C25.052 20.195 25.342 20.03 25.572 19.88C25.812 19.72 26.017 19.64 26.187 19.64C26.407 19.64 26.577 19.725 26.697 19.895L27.447 20.87ZM35.5144 23.24C34.3144 23.24 33.3894 22.905 32.7394 22.235C32.0994 21.565 31.7794 20.6 31.7794 19.34V10.04H29.9494C29.7894 10.04 29.6544 9.995 29.5444 9.905C29.4344 9.805 29.3794 9.655 29.3794 9.455V8.39L31.8694 8.075L32.4844 3.38C32.5144 3.23 32.5794 3.11 32.6794 3.02C32.7894 2.92 32.9294 2.87 33.0994 2.87H34.4494V8.105H38.8444V10.04H34.4494V19.16C34.4494 19.8 34.6044 20.275 34.9144 20.585C35.2244 20.895 35.6244 21.05 36.1144 21.05C36.3944 21.05 36.6344 21.015 36.8344 20.945C37.0444 20.865 37.2244 20.78 37.3744 20.69C37.5244 20.6 37.6494 20.52 37.7494 20.45C37.8594 20.37 37.9544 20.33 38.0344 20.33C38.1744 20.33 38.2994 20.415 38.4094 20.585L39.1894 21.86C38.7294 22.29 38.1744 22.63 37.5244 22.88C36.8744 23.12 36.2044 23.24 35.5144 23.24ZM54.0963 7.805V23H52.5063C52.1263 23 51.8863 22.815 51.7863 22.445L51.5763 20.81C50.9163 21.54 50.1763 22.13 49.3563 22.58C48.5363 23.02 47.5963 23.24 46.5363 23.24C45.7063 23.24 44.9713 23.105 44.3313 22.835C43.7013 22.555 43.1713 22.165 42.7413 21.665C42.3113 21.165 41.9863 20.56 41.7663 19.85C41.5563 19.14 41.4513 18.355 41.4513 17.495V7.805H44.1213V17.495C44.1213 18.645 44.3813 19.535 44.9013 20.165C45.4313 20.795 46.2363 21.11 47.3163 21.11C48.1063 21.11 48.8413 20.925 49.5213 20.555C50.2113 20.175 50.8463 19.655 51.4263 18.995V7.805H54.0963ZM60.8648 10.85C61.3448 9.81 61.9348 9 62.6348 8.42C63.3348 7.83 64.1898 7.535 65.1998 7.535C65.5198 7.535 65.8248 7.57 66.1148 7.64C66.4148 7.71 66.6798 7.82 66.9098 7.97L66.7148 9.965C66.6548 10.215 66.5048 10.34 66.2648 10.34C66.1248 10.34 65.9198 10.31 65.6498 10.25C65.3798 10.19 65.0748 10.16 64.7348 10.16C64.2548 10.16 63.8248 10.23 63.4448 10.37C63.0748 10.51 62.7398 10.72 62.4398 11C62.1498 11.27 61.8848 11.61 61.6448 12.02C61.4148 12.42 61.2048 12.88 61.0148 13.4V23H58.3298V7.805H59.8598C60.1498 7.805 60.3498 7.86 60.4598 7.97C60.5698 8.08 60.6448 8.27 60.6848 8.54L60.8648 10.85ZM78.8123 13.745C78.8123 13.125 78.7223 12.56 78.5423 12.05C78.3723 11.53 78.1173 11.085 77.7773 10.715C77.4473 10.335 77.0423 10.045 76.5623 9.845C76.0823 9.635 75.5373 9.53 74.9273 9.53C73.6473 9.53 72.6323 9.905 71.8823 10.655C71.1423 11.395 70.6823 12.425 70.5023 13.745H78.8123ZM80.9723 20.87C80.6423 21.27 80.2473 21.62 79.7873 21.92C79.3273 22.21 78.8323 22.45 78.3023 22.64C77.7823 22.83 77.2423 22.97 76.6823 23.06C76.1223 23.16 75.5673 23.21 75.0173 23.21C73.9673 23.21 72.9973 23.035 72.1073 22.685C71.2273 22.325 70.4623 21.805 69.8123 21.125C69.1723 20.435 68.6723 19.585 68.3123 18.575C67.9523 17.565 67.7723 16.405 67.7723 15.095C67.7723 14.035 67.9323 13.045 68.2523 12.125C68.5823 11.205 69.0523 10.41 69.6623 9.74C70.2723 9.06 71.0173 8.53 71.8973 8.15C72.7773 7.76 73.7673 7.565 74.8673 7.565C75.7773 7.565 76.6173 7.72 77.3873 8.03C78.1673 8.33 78.8373 8.77 79.3973 9.35C79.9673 9.92 80.4123 10.63 80.7323 11.48C81.0523 12.32 81.2123 13.28 81.2123 14.36C81.2123 14.78 81.1673 15.06 81.0773 15.2C80.9873 15.34 80.8173 15.41 80.5673 15.41H70.4123C70.4423 16.37 70.5723 17.205 70.8023 17.915C71.0423 18.625 71.3723 19.22 71.7923 19.7C72.2123 20.17 72.7123 20.525 73.2923 20.765C73.8723 20.995 74.5223 21.11 75.2423 21.11C75.9123 21.11 76.4873 21.035 76.9673 20.885C77.4573 20.725 77.8773 20.555 78.2273 20.375C78.5773 20.195 78.8673 20.03 79.0973 19.88C79.3373 19.72 79.5423 19.64 79.7123 19.64C79.9323 19.64 80.1023 19.725 80.2223 19.895L80.9723 20.87ZM94.392 11.42C93.892 10.75 93.352 10.285 92.772 10.025C92.192 9.755 91.542 9.62 90.822 9.62C89.412 9.62 88.327 10.125 87.567 11.135C86.807 12.145 86.427 13.585 86.427 15.455C86.427 16.445 86.512 17.295 86.682 18.005C86.852 18.705 87.102 19.285 87.432 19.745C87.762 20.195 88.167 20.525 88.647 20.735C89.127 20.945 89.672 21.05 90.282 21.05C91.162 21.05 91.927 20.85 92.577 20.45C93.237 20.05 93.842 19.485 94.392 18.755V11.42ZM97.062 0.904999V23H95.472C95.092 23 94.852 22.815 94.752 22.445L94.512 20.6C93.862 21.38 93.122 22.01 92.292 22.49C91.462 22.97 90.502 23.21 89.412 23.21C88.542 23.21 87.752 23.045 87.042 22.715C86.332 22.375 85.727 21.88 85.227 21.23C84.727 20.58 84.342 19.77 84.072 18.8C83.802 17.83 83.667 16.715 83.667 15.455C83.667 14.335 83.817 13.295 84.117 12.335C84.417 11.365 84.847 10.525 85.407 9.815C85.967 9.105 86.652 8.55 87.462 8.15C88.282 7.74 89.202 7.535 90.222 7.535C91.152 7.535 91.947 7.695 92.607 8.015C93.277 8.325 93.872 8.76 94.392 9.32V0.904999H97.062ZM112.495 23H109.585V1.505H112.495V23ZM121.589 23.24C120.389 23.24 119.464 22.905 118.814 22.235C118.174 21.565 117.854 20.6 117.854 19.34V10.04H116.024C115.864 10.04 115.729 9.995 115.619 9.905C115.509 9.805 115.454 9.655 115.454 9.455V8.39L117.944 8.075L118.559 3.38C118.589 3.23 118.654 3.11 118.754 3.02C118.864 2.92 119.004 2.87 119.174 2.87H120.524V8.105H124.919V10.04H120.524V19.16C120.524 19.8 120.679 20.275 120.989 20.585C121.299 20.895 121.699 21.05 122.189 21.05C122.469 21.05 122.709 21.015 122.909 20.945C123.119 20.865 123.299 20.78 123.449 20.69C123.599 20.6 123.724 20.52 123.824 20.45C123.934 20.37 124.029 20.33 124.109 20.33C124.249 20.33 124.374 20.415 124.484 20.585L125.264 21.86C124.804 22.29 124.249 22.63 123.599 22.88C122.949 23.12 122.279 23.24 121.589 23.24ZM137.758 13.745C137.758 13.125 137.668 12.56 137.488 12.05C137.318 11.53 137.063 11.085 136.723 10.715C136.393 10.335 135.988 10.045 135.508 9.845C135.028 9.635 134.483 9.53 133.873 9.53C132.593 9.53 131.578 9.905 130.828 10.655C130.088 11.395 129.628 12.425 129.448 13.745H137.758ZM139.918 20.87C139.588 21.27 139.193 21.62 138.733 21.92C138.273 22.21 137.778 22.45 137.248 22.64C136.728 22.83 136.188 22.97 135.628 23.06C135.068 23.16 134.513 23.21 133.963 23.21C132.913 23.21 131.943 23.035 131.053 22.685C130.173 22.325 129.408 21.805 128.758 21.125C128.118 20.435 127.618 19.585 127.258 18.575C126.898 17.565 126.718 16.405 126.718 15.095C126.718 14.035 126.878 13.045 127.198 12.125C127.528 11.205 127.998 10.41 128.608 9.74C129.218 9.06 129.963 8.53 130.843 8.15C131.723 7.76 132.713 7.565 133.813 7.565C134.723 7.565 135.563 7.72 136.333 8.03C137.113 8.33 137.783 8.77 138.343 9.35C138.913 9.92 139.358 10.63 139.678 11.48C139.998 12.32 140.158 13.28 140.158 14.36C140.158 14.78 140.113 15.06 140.023 15.2C139.933 15.34 139.763 15.41 139.513 15.41H129.358C129.388 16.37 129.518 17.205 129.748 17.915C129.988 18.625 130.318 19.22 130.738 19.7C131.158 20.17 131.658 20.525 132.238 20.765C132.818 20.995 133.468 21.11 134.188 21.11C134.858 21.11 135.433 21.035 135.913 20.885C136.403 20.725 136.823 20.555 137.173 20.375C137.523 20.195 137.813 20.03 138.043 19.88C138.283 19.72 138.488 19.64 138.658 19.64C138.878 19.64 139.048 19.725 139.168 19.895L139.918 20.87ZM143.437 23V7.805H145.042C145.422 7.805 145.657 7.99 145.747 8.36L145.942 9.92C146.502 9.23 147.132 8.665 147.832 8.225C148.532 7.785 149.342 7.565 150.262 7.565C151.282 7.565 152.107 7.85 152.737 8.42C153.377 8.99 153.837 9.76 154.117 10.73C154.337 10.18 154.617 9.705 154.957 9.305C155.307 8.905 155.697 8.575 156.127 8.315C156.557 8.055 157.012 7.865 157.492 7.745C157.982 7.625 158.477 7.565 158.977 7.565C159.777 7.565 160.487 7.695 161.107 7.955C161.737 8.205 162.267 8.575 162.697 9.065C163.137 9.555 163.472 10.16 163.702 10.88C163.932 11.59 164.047 12.405 164.047 13.325V23H161.362V13.325C161.362 12.135 161.102 11.235 160.582 10.625C160.062 10.005 159.312 9.695 158.332 9.695C157.892 9.695 157.472 9.775 157.072 9.935C156.682 10.085 156.337 10.31 156.037 10.61C155.737 10.91 155.497 11.29 155.317 11.75C155.147 12.2 155.062 12.725 155.062 13.325V23H152.377V13.325C152.377 12.105 152.132 11.195 151.642 10.595C151.152 9.995 150.437 9.695 149.497 9.695C148.837 9.695 148.227 9.875 147.667 10.235C147.107 10.585 146.592 11.065 146.122 11.675V23H143.437ZM176.955 10.31C176.835 10.53 176.65 10.64 176.4 10.64C176.25 10.64 176.08 10.585 175.89 10.475C175.7 10.365 175.465 10.245 175.185 10.115C174.915 9.975 174.59 9.85 174.21 9.74C173.83 9.62 173.38 9.56 172.86 9.56C172.41 9.56 172.005 9.62 171.645 9.74C171.285 9.85 170.975 10.005 170.715 10.205C170.465 10.405 170.27 10.64 170.13 10.91C170 11.17 169.935 11.455 169.935 11.765C169.935 12.155 170.045 12.48 170.265 12.74C170.495 13 170.795 13.225 171.165 13.415C171.535 13.605 171.955 13.775 172.425 13.925C172.895 14.065 173.375 14.22 173.865 14.39C174.365 14.55 174.85 14.73 175.32 14.93C175.79 15.13 176.21 15.38 176.58 15.68C176.95 15.98 177.245 16.35 177.465 16.79C177.695 17.22 177.81 17.74 177.81 18.35C177.81 19.05 177.685 19.7 177.435 20.3C177.185 20.89 176.815 21.405 176.325 21.845C175.835 22.275 175.235 22.615 174.525 22.865C173.815 23.115 172.995 23.24 172.065 23.24C171.005 23.24 170.045 23.07 169.185 22.73C168.325 22.38 167.595 21.935 166.995 21.395L167.625 20.375C167.705 20.245 167.8 20.145 167.91 20.075C168.02 20.005 168.16 19.97 168.33 19.97C168.51 19.97 168.7 20.04 168.9 20.18C169.1 20.32 169.34 20.475 169.62 20.645C169.91 20.815 170.26 20.97 170.67 21.11C171.08 21.25 171.59 21.32 172.2 21.32C172.72 21.32 173.175 21.255 173.565 21.125C173.955 20.985 174.28 20.8 174.54 20.57C174.8 20.34 174.99 20.075 175.11 19.775C175.24 19.475 175.305 19.155 175.305 18.815C175.305 18.395 175.19 18.05 174.96 17.78C174.74 17.5 174.445 17.265 174.075 17.075C173.705 16.875 173.28 16.705 172.8 16.565C172.33 16.415 171.845 16.26 171.345 16.1C170.855 15.94 170.37 15.76 169.89 15.56C169.42 15.35 169 15.09 168.63 14.78C168.26 14.47 167.96 14.09 167.73 13.64C167.51 13.18 167.4 12.625 167.4 11.975C167.4 11.395 167.52 10.84 167.76 10.31C168 9.77 168.35 9.3 168.81 8.9C169.27 8.49 169.835 8.165 170.505 7.925C171.175 7.685 171.94 7.565 172.8 7.565C173.8 7.565 174.695 7.725 175.485 8.045C176.285 8.355 176.975 8.785 177.555 9.335L176.955 10.31Z" fill="#222222"/>
</svg>
